mtllib npcitem.mtl
o lever
v 0.500000 0.000000 0.475000
v 0.500000 0.031250 0.450000
v 0.514401 0.000000 0.487500
v 0.528801 0.031250 0.475000
v 0.514401 0.000000 0.512500
v 0.528801 0.031250 0.525000
v 0.500000 0.000000 0.525000
v 0.500000 0.031250 0.550000
v 0.485599 0.000000 0.512500
v 0.471199 0.031250 0.525000
v 0.485599 0.000000 0.487500
v 0.471199 0.031250 0.475000
v 0.528801 0.375000 0.453080
v 0.500000 0.375000 0.428080
v 0.528801 0.375000 0.503080
v 0.500000 0.375000 0.528080
v 0.471199 0.375000 0.502500
v 0.471199 0.375000 0.452500
v 0.528801 0.625000 0.486048
v 0.500000 0.625000 0.461048
v 0.528801 0.625000 0.536048
v 0.500000 0.625000 0.561048
v 0.471199 0.625000 0.535000
v 0.471199 0.625000 0.485000
v 0.528801 0.906250 0.475000
v 0.500000 0.906250 0.450000
v 0.528801 0.906250 0.525000
v 0.500000 0.906250 0.550000
v 0.471198 0.906250 0.525000
v 0.471198 0.906250 0.475000
v 0.514400 0.937500 0.487500
v 0.500000 0.937500 0.475000
v 0.514400 0.937500 0.512500
v 0.500000 0.937500 0.525000
v 0.485599 0.937500 0.512500
v 0.485599 0.937500 0.487500
v 0.500000 0.937500 0.500000
v 0.500000 0.000000 0.500000
vt 0.348695 0.664113
vt 0.337822 0.999917
vt 0.000083 0.750561
vt 0.257537 0.580868
vt 0.000083 0.228448
vt 0.243238 0.423492
vt 0.349025 0.000083
vt 0.338152 0.335887
vt 0.686764 0.249439
vt 0.429310 0.419132
vt 0.998413 0.246264
vt 0.999946 0.289130
vt 0.612561 0.286810
vt 0.613155 0.243154
vt 0.686764 0.771552
vt 0.443609 0.576508
vt 0.343423 0.500000
vt 0.614805 0.188081
vt 0.325409 0.250380
vt 0.327744 0.192040
vt 0.998402 0.048901
vt 0.995142 0.104528
vt 0.614792 0.106585
vt 0.613120 0.051496
vt 0.995134 0.190627
vt 0.993464 0.147574
vt 0.615646 0.147534
vt 0.999946 0.006034
vt 0.612551 0.008256
vt 0.328947 0.147508
vt 0.001011 0.189997
vt 0.000054 0.147589
vt 0.325364 0.043865
vt 0.324357 0.000054
vt 0.327685 0.102164
vt 0.324357 0.295006
vt 0.000083 0.771552
vt 0.000083 0.249439
vt 0.257538 0.419132
vt 0.243239 0.576508
vt 0.003100 0.290517
vt 0.002580 0.246612
vt 0.000990 0.105181
vt 0.002604 0.048566
vt 0.003106 0.004637
vt 0.429311 0.580868
vt 0.343424 0.500000
vt 0.443610 0.423492
vt 0.337822 0.000083
vt 0.686765 0.228448
vt 0.348696 0.335887
vt 0.686765 0.750561
vt 0.349025 0.999917
vt 0.338153 0.664113
vn 0.5611 -0.5171 -0.6464
vn 0.9082 -0.4185 0.0000
vn 0.5611 -0.5171 0.6464
vn -0.5611 -0.5171 0.6464
vn -0.6590 0.0485 0.7505
vn -0.9082 -0.4185 0.0000
vn -0.5611 -0.5171 -0.6464
vn 0.0000 -1.0000 0.0000
vn -1.0000 -0.0000 0.0000
vn 1.0000 0.0000 0.0000
vn 0.6548 -0.0481 -0.7543
vn 0.6548 0.0481 0.7543
vn -0.6504 -0.0490 -0.7580
vn -0.6473 -0.0285 -0.7617
vn 0.6523 -0.0991 0.7515
vn 0.6523 0.0991 -0.7515
vn -0.6399 0.0998 -0.7620
vn -0.6643 -0.0970 0.7412
vn -0.9082 0.4185 0.0000
vn -0.6630 0.0280 0.7481
vn 0.6552 0.0297 0.7549
vn 0.6552 -0.0297 -0.7549
vn 0.0000 1.0000 0.0000
vn 0.5611 0.5171 0.6464
vn 0.5611 0.5171 -0.6464
vn -0.5611 0.5171 -0.6464
vn -0.5611 0.5171 0.6464
vn 0.9082 0.4185 0.0000
usemtl wood
f 1/1/1 2/2/1 4/3/1 3/4/1
f 3/4/2 4/3/2 6/5/2 5/6/2
f 5/6/3 6/5/3 8/7/3 7/8/3
f 7/8/4 8/7/4 10/9/4 9/10/4
f 10/11/5 8/12/5 16/13/5 17/14/5
f 9/10/6 10/9/6 12/15/6 11/16/6
f 11/16/7 12/15/7 2/2/7 1/1/7
f 1/1/8 38/17/8 11/16/8
f 18/18/9 17/14/9 23/19/9 24/20/9
f 6/21/10 4/22/10 13/23/10 15/24/10
f 12/25/9 10/11/9 17/14/9 18/18/9
f 4/22/11 2/26/11 14/27/11 13/23/11
f 8/28/12 6/21/12 15/24/12 16/29/12
f 2/26/13 12/25/13 18/18/13 14/27/13
f 20/30/14 24/20/14 30/31/14 26/32/14
f 16/29/15 15/24/15 21/33/15 22/34/15
f 13/23/16 14/27/16 20/30/16 19/35/16
f 14/27/17 18/18/17 24/20/17 20/30/17
f 17/14/18 16/13/18 22/36/18 23/19/18
f 15/24/10 13/23/10 19/35/10 21/33/10
f 30/37/19 29/38/19 35/39/19 36/40/19
f 23/19/20 22/36/20 28/41/20 29/42/20
f 21/33/10 19/35/10 25/43/10 27/44/10
f 24/20/9 23/19/9 29/42/9 30/31/9
f 22/34/21 21/33/21 27/44/21 28/45/21
f 19/35/22 20/30/22 26/32/22 25/43/22
f 31/46/23 37/47/23 33/48/23
f 28/49/24 27/50/24 33/48/24 34/51/24
f 25/52/25 26/53/25 32/54/25 31/46/25
f 26/53/26 30/37/26 36/40/26 32/54/26
f 29/38/27 28/49/27 34/51/27 35/39/27
f 27/50/28 25/52/28 31/46/28 33/48/28
f 33/48/23 37/47/23 34/51/23
f 34/51/23 37/47/23 35/39/23
f 35/39/23 37/47/23 36/40/23
f 36/40/23 37/47/23 32/54/23
f 32/54/23 37/47/23 31/46/23
f 11/16/8 38/17/8 9/10/8
f 9/10/8 38/17/8 7/8/8
f 7/8/8 38/17/8 5/6/8
f 5/6/8 38/17/8 3/4/8
f 3/4/8 38/17/8 1/1/8
o tip
v 0.519134 0.744683 0.450562
v 0.519134 0.849607 0.446199
v 0.546194 0.735976 0.487599
v 0.546194 0.860900 0.483237
v 0.546194 0.737312 0.525844
v 0.546194 0.862235 0.521482
v 0.519134 0.738605 0.562881
v 0.519134 0.863529 0.558519
v 0.480866 0.738605 0.562881
v 0.480866 0.863529 0.558519
v 0.453806 0.737312 0.525844
v 0.453806 0.862235 0.521482
v 0.453806 0.735976 0.487599
v 0.453806 0.860900 0.483237
v 0.480866 0.744683 0.450562
v 0.480866 0.849607 0.446199
v 0.500000 0.861568 0.502359
v 0.500000 0.736644 0.506721
v 0.514134 0.701589 0.326729
v 0.514134 0.883975 0.320185
v 0.485866 0.883975 0.307685
v 0.485866 0.701589 0.314229
v 0.509134 0.668177 0.265357
v 0.509134 0.925525 0.256632
v 0.490866 0.925525 0.229132
v 0.490866 0.655677 0.237857
v 0.500000 0.612096 0.197150
v 0.500000 0.966925 0.187378
v 0.500000 0.859607 0.446199
v 0.500000 0.898975 0.307685
v 0.500000 0.940525 0.229132
v 0.500000 0.734683 0.450562
v 0.500000 0.686589 0.314229
v 0.500000 0.640677 0.237857
vt 0.431093 0.620684
vt 0.431105 0.381410
vt 0.326543 0.375022
vt 0.326537 0.624983
vt 0.239346 0.375022
vt 0.239341 0.624983
vt 0.134789 0.375022
vt 0.134784 0.624983
vt 0.001506 0.624983
vt 0.002403 0.375022
vt 0.134784 0.375022
vt 0.134789 0.624983
vt 0.239341 0.375022
vt 0.239346 0.624983
vt 0.326537 0.375022
vt 0.326543 0.624983
vt 0.377976 0.403815
vt 0.437329 0.249987
vt 0.503853 0.400852
vt 0.431093 0.381415
vt 0.431105 0.620689
vt 0.426840 0.332426
vt 0.718547 0.318400
vt 0.716322 0.271013
vt 0.247887 0.190795
vt 0.437329 0.249987
vt 0.250383 0.316644
vt 0.216249 0.254372
vt 0.623868 0.309238
vt 0.621372 0.183387
vt 0.497818 0.096603
vt 0.371923 0.098634
vt 0.247887 0.190795
vt 0.250383 0.316644
vt 0.216249 0.254372
vt 0.377976 0.403815
vt 0.503853 0.400852
vt 0.623868 0.309238
vt 0.621372 0.183387
vt 0.497818 0.096603
vt 0.371923 0.098634
vt 0.718538 0.683697
vt 0.863010 0.752527
vt 0.863025 0.249572
vt 0.718538 0.318401
vt 0.718547 0.683699
vt 0.426840 0.669673
vt 0.716322 0.731086
vt 0.863010 0.249572
vt 0.863122 0.209512
vt 0.937494 0.180668
vt 0.863025 0.752526
vt 0.863123 0.792587
vt 0.937494 0.821431
vn 0.8076 -0.0224 -0.5893
vn 1.0000 -0.0000 0.0000
vn 0.8076 0.0206 0.5893
vn 0.0000 0.0349 0.9994
vn -0.8076 0.0206 0.5893
vn -1.0000 0.0000 0.0000
vn 0.0000 0.9994 -0.0349
vn -0.8076 -0.0224 -0.5893
vn 0.5327 0.8178 0.2179
vn 0.0000 -0.9994 0.0349
vn 0.0831 0.9685 -0.2346
vn -0.0831 0.9685 -0.2346
vn 0.0843 -0.9820 -0.1693
vn -0.0843 -0.9820 -0.1693
vn 0.9968 -0.0028 -0.0800
vn -0.9993 -0.0014 -0.0363
vn 0.9992 -0.0015 -0.0399
vn -0.5819 -0.7744 0.2483
vn -0.8114 0.4941 0.3124
vn 0.2536 0.8389 0.4816
vn -0.9979 -0.0022 -0.0644
vn -0.7475 -0.5798 0.3241
vn -0.9763 -0.0064 -0.2161
vn 0.5917 -0.6598 0.4632
vn 0.9913 -0.0040 -0.1313
vn -0.7571 0.5872 0.2865
vn -0.5889 0.7836 0.1979
vn 0.6169 -0.6915 0.3758
vn 0.5090 -0.8153 0.2760
vn -0.2157 0.8253 0.5218
vn -0.8023 -0.4885 0.3430
usemtl chip
f 39/55/29 40/56/29 42/57/29 41/58/29
f 41/58/30 42/57/30 44/59/30 43/60/30
f 43/60/31 44/59/31 46/61/31 45/62/31
f 45/63/32 46/64/32 48/65/32 47/66/32
f 47/66/33 48/65/33 50/67/33 49/68/33
f 49/68/34 50/67/34 52/69/34 51/70/34
f 42/71/35 55/72/35 44/73/35
f 51/70/36 52/69/36 54/74/36 53/75/36
f 67/76/37 40/56/37 58/77/37 68/78/37
f 39/79/38 56/80/38 53/81/38 70/82/38
f 44/73/35 55/72/35 46/83/35
f 46/83/35 55/72/35 48/84/35
f 48/84/35 55/72/35 50/85/35
f 50/85/35 55/72/35 52/86/35
f 52/86/39 55/72/39 54/87/39
f 54/87/35 55/72/35 40/88/35 67/89/35
f 40/88/40 55/72/40 42/71/40
f 53/81/41 56/80/41 51/90/41
f 51/90/38 56/80/38 49/91/38
f 49/91/38 56/80/38 47/92/38
f 47/92/38 56/80/38 45/93/38
f 45/93/38 56/80/38 43/94/38
f 43/94/38 56/80/38 41/95/38
f 41/95/42 56/80/42 39/79/42
f 58/77/43 57/96/43 61/97/43 62/98/43
f 53/75/44 54/74/44 59/99/44 60/100/44
f 40/56/45 39/55/45 57/96/45 58/77/45
f 70/101/46 53/75/46 60/100/46 71/102/46
f 63/103/47 69/104/47 66/105/47
f 68/78/48 58/77/48 62/98/48 69/104/48
f 60/100/49 59/99/49 63/103/49 64/106/49
f 71/102/50 60/100/50 64/106/50 72/107/50
f 64/106/51 63/103/51 66/105/51 65/108/51
f 61/97/52 72/107/52 65/108/52
f 62/98/53 61/97/53 65/108/53 66/105/53
f 59/99/54 68/78/54 69/104/54 63/103/54
f 54/74/55 67/76/55 68/78/55 59/99/55
f 57/96/56 71/102/56 72/107/56 61/97/56
f 39/55/57 70/101/57 71/102/57 57/96/57
f 66/105/58 69/104/58 62/98/58
f 65/108/59 72/107/59 64/106/59
