mtllib npcitem.mtl
o lever
v 0.511959 0.031250 0.471129
v 0.511959 0.856250 0.471129
v 0.528871 0.856250 0.488041
v 0.528871 0.031250 0.488041
v 0.528871 0.700146 0.511959
v 0.528871 0.031250 0.511959
v 0.511959 0.700146 0.528871
v 0.511959 0.031250 0.528871
v 0.488041 0.700146 0.528871
v 0.488041 0.031250 0.528871
v 0.471129 0.700146 0.511959
v 0.471129 0.031250 0.511959
v 0.471129 0.856250 0.488041
v 0.471129 0.031250 0.488041
v 0.500000 0.875000 0.500000
v 0.488041 0.856250 0.471129
v 0.488041 0.031250 0.471129
v 0.500000 -0.000000 0.500000
vt 1.000000 0.500000
vt 1.000000 1.000000
vt 0.875000 1.000000
vt 0.875000 0.500000
vt 0.750000 1.000000
vt 0.750000 0.500000
vt 0.625000 1.000000
vt 0.625000 0.500000
vt 0.500000 1.000000
vt 0.500000 0.500000
vt 0.375000 1.000000
vt 0.375000 0.500000
vt 0.250000 1.000000
vt 0.250000 0.500000
vt 0.419706 0.419706
vt 0.250000 0.250000
vt 0.490000 0.250000
vt 0.125000 1.000000
vt 0.125000 0.500000
vt 0.000000 1.000000
vt 0.000000 0.500000
vt 0.750000 0.490000
vt 0.750000 0.250000
vt 0.580294 0.419706
vt 0.080294 0.080294
vt 0.010000 0.250000
vt 0.080294 0.419706
vt 0.419706 0.080294
vt 0.250000 0.490000
vt 0.250000 0.010000
vt 0.510000 0.250000
vt 0.580294 0.080294
vt 0.750000 0.010000
vt 0.919706 0.080294
vt 0.990000 0.250000
vt 0.919706 0.419706
vn 0.7071 0.0000 -0.7071
vn 1.0000 -0.0000 0.0000
vn 0.7071 -0.0000 0.7071
vn 0.0000 -0.0000 1.0000
vn -0.7071 -0.0000 0.7071
vn -1.0000 0.0000 0.0000
vn 0.4528 0.1350 0.8813
vn -0.7071 0.0000 -0.7071
vn 0.0000 0.0000 -1.0000
vn 0.0000 -0.6786 -0.7345
vn -0.4528 0.1350 0.8813
vn -0.3851 0.8387 -0.3851
vn 0.6977 0.1629 0.6977
vn 0.0000 0.8387 -0.5447
vn 0.0000 0.1629 0.9866
vn 0.3851 0.8387 -0.3851
vn -0.6977 0.1629 0.6977
vn -0.5194 -0.6786 -0.5194
vn -0.7345 -0.6786 -0.0000
vn -0.5194 -0.6786 0.5194
vn 0.0000 -0.6786 0.7345
vn 0.5194 -0.6786 0.5194
vn 0.7345 -0.6786 -0.0000
vn 0.5194 -0.6786 -0.5194
usemtl wood
f 1/1/1 2/2/1 3/3/1 4/4/1
f 4/4/2 3/3/2 5/5/2 6/6/2
f 6/6/3 5/5/3 7/7/3 8/8/3
f 8/8/4 7/7/4 9/9/4 10/10/4
f 10/10/5 9/9/5 11/11/5 12/12/5
f 12/12/6 11/11/6 13/13/6 14/14/6
f 3/15/7 15/16/7 5/17/7
f 14/14/8 13/13/8 16/18/8 17/19/8
f 17/19/9 16/18/9 2/20/9 1/21/9
f 1/22/10 18/23/10 17/24/10
f 11/25/11 15/16/11 13/26/11
f 13/26/12 15/16/12 16/27/12
f 5/17/13 15/16/13 7/28/13
f 16/27/14 15/16/14 2/29/14
f 7/28/15 15/16/15 9/30/15
f 2/29/16 15/16/16 3/15/16
f 9/30/17 15/16/17 11/25/17
f 17/24/18 18/23/18 14/31/18
f 14/31/19 18/23/19 12/32/19
f 12/32/20 18/23/20 10/33/20
f 10/33/21 18/23/21 8/34/21
f 8/34/22 18/23/22 6/35/22
f 6/35/23 18/23/23 4/36/23
f 4/36/24 18/23/24 1/22/24
o tip
v 0.515939 0.661923 0.461520
v 0.515939 0.724423 0.461520
v 0.538480 0.661923 0.484061
v 0.538480 0.724423 0.484061
v 0.538480 0.661923 0.515939
v 0.538480 0.724423 0.515939
v 0.515939 0.661923 0.538480
v 0.515939 0.724423 0.538480
v 0.484061 0.661923 0.538480
v 0.484061 0.724423 0.538480
v 0.461520 0.661923 0.515939
v 0.461520 0.724423 0.515939
v 0.461520 0.661923 0.484061
v 0.461520 0.724423 0.484061
v 0.484061 0.661923 0.461520
v 0.484061 0.724423 0.461520
v 0.500000 0.648116 0.500000
v 0.500000 0.724423 0.500000
v 0.538480 0.818173 0.515939
v 0.538480 0.870523 0.484061
v 0.515939 0.794892 0.538480
v 0.484061 0.794892 0.538480
v 0.461520 0.818173 0.515939
v 0.461520 0.870523 0.484061
v 0.500000 0.873086 0.500000
v 0.663480 0.724423 0.547189
v 0.648480 0.724423 0.515311
v 0.663480 0.818173 0.540220
v 0.648480 0.818173 0.508343
v 0.351520 0.724423 0.515311
v 0.336520 0.724423 0.547189
v 0.351520 0.818173 0.508342
v 0.336520 0.818173 0.540220
v 0.538480 1.062500 0.541071
v 0.538480 1.052500 0.523398
v 0.461520 1.052500 0.523398
v 0.461520 1.062500 0.541071
v 0.501677 1.083740 0.545640
v 0.632230 0.985000 0.541527
v 0.617230 0.980000 0.522695
v 0.382770 0.980000 0.522695
v 0.367770 0.985000 0.541527
vt 0.985239 0.738362
vt 0.846554 0.740082
vt 0.845677 0.669347
vt 0.984362 0.667627
vt 0.844799 0.598612
vt 0.983485 0.596892
vt 0.845797 0.528113
vt 0.982607 0.526157
vt 0.844028 0.459348
vt 0.981143 0.455545
vt 0.840184 0.389811
vt 0.978861 0.384837
vt 0.837647 0.319080
vt 0.976324 0.314106
vt 0.778566 0.493500
vt 0.776447 0.412894
vt 0.491514 0.420224
vt 0.516699 0.493828
vt 0.835110 0.248349
vt 0.973787 0.243375
vt 0.986117 0.809097
vt 0.847432 0.810817
vt 0.473595 0.407989
vt 0.625000 0.470703
vt 0.473595 0.533417
vt 0.562286 0.622108
vt 0.687714 0.622108
vt 0.776405 0.533417
vt 0.776405 0.407989
vt 0.687714 0.319298
vt 0.562286 0.319298
vt 0.863829 0.409991
vt 0.847082 0.492401
vt 0.922558 0.455326
vt 0.922535 0.529514
vt 0.863784 0.574809
vt 0.706970 0.526547
vt 0.704097 0.466224
vt 0.641805 0.581810
vt 0.841205 0.602975
vt 0.765791 0.840484
vt 0.598895 0.854126
vt 0.838897 0.384581
vt 0.641050 0.410983
vt 0.776566 0.574114
vt 0.491139 0.567602
vt 0.576767 0.211524
vt 0.596007 0.136850
vt 0.257219 0.223168
vt 0.268920 0.271687
vt 0.144357 0.424396
vt 0.258868 0.769029
vt 0.107236 0.577323
vt 0.737707 0.778787
vt 0.578176 0.775577
vt 0.736781 0.207610
vt 0.764227 0.146193
vt 0.106718 0.415569
vt 0.062496 0.500002
vt 0.145323 0.567717
vt 0.271385 0.718236
vn 0.7071 0.0000 -0.7071
vn 1.0000 0.0000 0.0000
vn 0.7071 0.0000 0.7071
vn 0.0000 0.0000 1.0000
vn -0.7071 0.0000 0.7071
vn -1.0000 0.0000 -0.0000
vn 0.3827 0.0000 -0.9239
vn -0.7071 0.0000 -0.7071
vn 0.0000 0.0000 -1.0000
vn 0.0000 -0.9412 -0.3377
vn -0.2388 -0.9412 -0.2388
vn -0.3377 -0.9412 -0.0000
vn -0.2388 -0.9412 0.2388
vn 0.0000 -0.9412 0.3377
vn 0.2388 -0.9412 0.2388
vn 0.3377 -0.9412 0.0000
vn 0.2388 -0.9412 -0.2388
vn 0.0000 1.0000 0.0000
vn -0.2167 0.0363 0.9756
vn -0.3827 0.0000 -0.9239
vn -0.8379 0.1838 -0.5139
vn -0.2325 0.1707 -0.9575
vn -0.1379 -0.0740 0.9877
vn 0.9044 -0.0316 -0.4256
vn 0.0000 -1.0000 -0.0000
vn 0.2383 -0.0282 -0.9708
vn -0.9044 -0.0316 -0.4256
vn 0.2167 0.0363 0.9756
vn -0.2383 -0.0282 -0.9708
vn -0.5673 0.6532 -0.5015
vn 0.0000 0.5800 -0.8146
vn -0.3748 0.8069 -0.4565
vn 0.5673 0.6532 -0.5015
vn 0.1379 -0.0740 0.9877
vn 0.2325 0.1707 -0.9575
vn 0.4036 0.7963 -0.4506
vn 0.8379 0.1838 -0.5139
vn 0.0000 -0.9873 0.1588
vn 0.0000 0.2113 -0.9774
vn 0.0000 0.6956 0.7184
vn 0.0000 -0.1023 0.9948
vn 0.0000 -0.2103 0.9776
usemtl chip
f 19/37/25 20/38/25 22/39/25 21/40/25
f 21/40/26 22/39/26 24/41/26 23/42/26
f 23/42/27 24/41/27 26/43/27 25/44/27
f 25/44/28 26/43/28 28/45/28 27/46/28
f 27/46/29 28/45/29 30/47/29 29/48/29
f 29/48/30 30/47/30 32/49/30 31/50/30
f 36/51/31 32/52/31 42/53/31 43/54/31
f 31/50/32 32/49/32 34/55/32 33/56/32
f 33/57/33 34/58/33 20/38/33 19/37/33
f 19/59/34 35/60/34 33/61/34
f 33/61/35 35/60/35 31/62/35
f 31/62/36 35/60/36 29/63/36
f 29/63/37 35/60/37 27/64/37
f 27/64/38 35/60/38 25/65/38
f 25/65/39 35/60/39 23/66/39
f 23/66/40 35/60/40 21/67/40
f 21/67/41 35/60/41 19/59/41
f 32/68/42 36/69/42 34/70/42
f 34/70/42 36/69/42 20/71/42
f 20/71/42 36/69/42 22/72/42
f 28/45/28 26/43/28 39/73/28 40/74/28
f 37/75/43 24/76/43 44/77/43 46/78/43
f 30/79/29 28/45/29 40/74/29 41/80/29
f 22/81/44 36/51/44 43/54/44 38/82/44
f 26/43/27 24/76/27 37/75/27 39/73/27
f 50/83/45 51/84/45 60/85/45 59/86/45
f 42/53/46 50/83/46 59/86/46 54/87/46
f 37/75/47 46/78/47 57/88/47 52/89/47
f 44/77/48 45/90/48 47/91/48 46/78/48
f 24/76/49 22/81/49 45/90/49 44/77/49
f 22/81/50 38/82/50 47/91/50 45/90/50
f 48/92/51 49/93/51 51/84/51 50/83/51
f 30/79/52 41/80/52 51/84/52 49/93/52
f 42/53/53 32/52/53 48/92/53 50/83/53
f 32/52/49 30/79/49 49/93/49 48/92/49
f 55/94/54 54/87/54 59/86/54 60/85/54
f 56/95/55 53/96/55 54/87/55
f 55/94/56 56/95/56 54/87/56
f 53/96/57 52/89/57 57/88/57 58/97/57
f 51/84/58 41/80/58 55/94/58 60/85/58
f 47/91/59 38/82/59 53/96/59 58/97/59
f 52/89/60 53/96/60 56/95/60
f 46/78/61 47/91/61 58/97/61 57/88/61
f 43/54/62 42/53/62 38/82/62
f 54/87/63 53/96/63 38/82/63 42/53/63
f 39/73/64 37/75/64 41/80/64 40/74/64
f 52/89/65 55/94/65 41/80/65 37/75/65
f 55/94/66 52/89/66 56/95/66
