mtllib marks.mtl
o body
v 0.076563 0.123317 0.000000
v 0.066306 0.161599 0.000000
v 0.046884 0.161599 0.046884
v 0.054138 0.123317 0.054138
v 0.038281 0.189623 0.000000
v 0.000000 0.199880 0.000000
v 0.027069 0.189623 0.027069
v 0.000000 0.046755 0.000000
v 0.038281 0.057012 0.000000
v 0.027069 0.057012 0.027069
v 0.066306 0.085036 0.000000
v 0.046884 0.085036 0.046884
v 0.000000 0.057012 0.038281
v 0.000000 0.123318 0.076563
v 0.000000 0.085036 0.066306
v 0.000000 0.189623 0.038281
v 0.000000 0.161599 0.066306
v -0.027069 0.057012 0.027069
v -0.054138 0.123318 0.054138
v -0.046884 0.085036 0.046884
v -0.027069 0.189623 0.027069
v -0.046884 0.161599 0.046884
v -0.076562 0.123318 -0.000000
v -0.066306 0.085036 -0.000000
v -0.038281 0.189623 -0.000000
v -0.066306 0.161599 -0.000000
v -0.038281 0.057012 -0.000000
v -0.027069 0.189623 -0.027069
v -0.046884 0.161599 -0.046884
v -0.046884 0.085036 -0.046884
v -0.027069 0.057012 -0.027069
v -0.054138 0.123318 -0.054138
v 0.000000 0.085036 -0.066306
v 0.000000 0.057012 -0.038281
v 0.000000 0.161599 -0.066306
v 0.000000 0.123318 -0.076563
v 0.000000 0.189623 -0.038281
v 0.046884 0.085036 -0.046884
v 0.027069 0.057012 -0.027069
v 0.046884 0.161599 -0.046884
v 0.054138 0.123317 -0.054138
v 0.027069 0.189623 -0.027069
v 0.031250 0.248931 0.000000
v 0.104870 0.526128 0.000000
v 0.074155 0.526128 0.055616
v 0.022097 0.248931 0.016573
v 0.107422 0.756595 0.000000
v 0.083897 0.841276 0.000000
v 0.059323 0.841276 0.044493
v 0.075959 0.756595 0.056969
v 0.031250 0.908597 0.000000
v 0.000000 0.919504 0.000000
v 0.022097 0.908597 0.022097
v 0.000000 0.218318 0.000000
v 0.000000 0.841276 0.062922
v 0.000000 0.756595 0.080567
v 0.000000 0.908597 0.031250
v 0.000000 0.248931 0.023437
v 0.000000 0.526128 0.078653
v -0.022097 0.908597 0.022097
v -0.022097 0.248931 0.016573
v -0.075959 0.756595 0.056969
v -0.074155 0.526128 0.055616
v -0.059323 0.841276 0.044493
v -0.031250 0.248931 -0.000000
v -0.107422 0.756595 -0.000000
v -0.104870 0.526128 -0.000000
v -0.031250 0.908597 -0.000000
v -0.083897 0.841276 -0.000000
v -0.022097 0.248931 -0.016573
v -0.075959 0.756595 -0.056969
v -0.074155 0.526128 -0.055616
v -0.022097 0.908597 -0.022097
v -0.059323 0.841276 -0.044493
v 0.000000 0.248931 -0.023437
v 0.000000 0.756595 -0.080567
v 0.000000 0.526128 -0.078653
v 0.000000 0.908597 -0.031250
v 0.000000 0.841276 -0.062922
v 0.075959 0.756595 -0.056969
v 0.074155 0.526128 -0.055616
v 0.022097 0.908597 -0.022097
v 0.059323 0.841276 -0.044493
v 0.022097 0.248931 -0.016573
vt 0.417423 0.603987
vt 0.400474 0.590470
vt 0.406042 0.572617
vt 0.425095 0.570112
vt 0.390683 0.582605
vt 0.381728 0.575342
vt 0.392761 0.574156
vt 0.094670 0.000636
vt 0.187432 0.093398
vt 0.094670 0.186160
vt 0.450953 0.630305
vt 0.470665 0.563460
vt 0.846900 0.936387
vt 0.801426 0.502212
vt 0.188704 0.000636
vt 0.281466 0.093398
vt 0.188704 0.186160
vt 0.409191 0.540435
vt 0.432272 0.508100
vt 0.388904 0.566453
vt 0.396518 0.556808
vt 0.681544 0.097120
vt 0.018861 0.000118
vt 0.335358 0.318515
vt 0.377308 0.533489
vt 0.372886 0.494119
vt 0.380609 0.564385
vt 0.379265 0.551483
vt 0.348256 0.547348
vt 0.320898 0.522747
vt 0.372931 0.568108
vt 0.363595 0.560319
vt 0.176343 0.378410
vt 0.370709 0.576392
vt 0.357499 0.577538
vt 0.292802 0.581486
vt 0.000118 0.566475
vt 0.338551 0.578880
vt 0.324388 0.641972
vt 0.000118 0.987573
vt 0.366357 0.593799
vt 0.352421 0.610176
vt 0.374403 0.584218
vt 0.094670 0.374228
vt 0.187432 0.466990
vt 0.094670 0.559752
vt 0.390223 0.666366
vt 0.415836 0.999882
vt 0.384141 0.599880
vt 0.385968 0.619341
vt 0.382829 0.586423
vt 0.282738 0.374228
vt 0.375500 0.466990
vt 0.282738 0.559752
vt 0.470807 0.000636
vt 0.563569 0.093398
vt 0.470807 0.186160
vt 0.865577 0.427279
vt 0.873327 0.447632
vt 0.868502 0.448162
vt 0.864229 0.427943
vt 0.873410 0.465495
vt 0.871143 0.472300
vt 0.867292 0.471097
vt 0.868546 0.464902
vt 0.847137 0.479380
vt 0.847137 0.479380
vt 0.847137 0.479380
vt 0.862566 0.425124
vt 0.964805 0.000118
vt 0.967079 0.424888
vt 0.847137 0.424888
vt 0.847713 0.000118
vt 0.866547 0.477837
vt 0.864764 0.476912
vt 0.862826 0.470838
vt 0.862791 0.464717
vt 0.862873 0.479143
vt 0.862857 0.476421
vt 0.862583 0.428139
vt 0.862698 0.448323
vt 0.860957 0.476934
vt 0.860935 0.427961
vt 0.857038 0.464967
vt 0.856892 0.448228
vt 0.858362 0.471147
vt 0.859579 0.427313
vt 0.852181 0.465615
vt 0.852061 0.447752
vt 0.859184 0.477879
vt 0.854526 0.472394
vt 0.847137 0.479380
vt 0.847137 0.479380
vt 0.847137 0.479380
vt 0.847137 0.479380
vt 0.847137 0.479380
vt 0.847137 0.465622
vt 0.847137 0.447759
vt 0.847137 0.479380
vt 0.847137 0.479380
vt 0.847137 0.479380
vt 0.847137 0.479380
vt 0.847137 0.479380
vt 0.847137 0.479380
vt 0.847137 0.479380
vt 0.847137 0.479380
vt 0.847137 0.479380
vt 0.847137 0.479380
vt 0.847137 0.479380
vt 0.847137 0.479380
vt 0.847137 0.479380
vt 0.847137 0.479380
vt 0.847137 0.479380
vt 0.847137 0.479380
vt 0.847137 0.479380
vt 0.847137 0.479380
vt 0.847137 0.479380
vt 0.847137 0.479380
vt 0.847137 0.479380
vn 0.8968 0.2403 0.3715
vn 0.2573 0.9604 0.1066
vn 0.2573 -0.9604 0.1066
vn 0.8968 -0.2403 0.3715
vn 0.6786 0.6786 0.2811
vn 0.6786 -0.6786 0.2811
vn 0.1066 -0.9604 0.2573
vn 0.3715 -0.2403 0.8968
vn 0.2811 0.6786 0.6786
vn 0.2811 -0.6786 0.6786
vn 0.3715 0.2403 0.8968
vn 0.1066 0.9604 0.2573
vn -0.1066 -0.9604 0.2573
vn -0.3715 -0.2403 0.8968
vn -0.2811 0.6786 0.6786
vn -0.2811 -0.6786 0.6786
vn -0.3715 0.2403 0.8968
vn -0.1066 0.9604 0.2573
vn -0.8968 -0.2403 0.3715
vn -0.6786 0.6786 0.2811
vn -0.6786 -0.6786 0.2811
vn -0.8968 0.2403 0.3715
vn -0.2573 0.9604 0.1066
vn -0.2573 -0.9604 0.1066
vn -0.6786 0.6786 -0.2811
vn -0.6786 -0.6786 -0.2811
vn -0.8968 0.2403 -0.3715
vn -0.2573 0.9604 -0.1066
vn -0.2573 -0.9604 -0.1066
vn -0.8968 -0.2403 -0.3715
vn -0.2811 -0.6786 -0.6786
vn -0.3715 0.2403 -0.8968
vn -0.1066 0.9604 -0.2573
vn -0.1066 -0.9604 -0.2573
vn -0.3715 -0.2403 -0.8968
vn -0.2811 0.6786 -0.6786
vn 0.2811 -0.6786 -0.6786
vn 0.3715 0.2403 -0.8968
vn 0.1066 0.9604 -0.2573
vn 0.1066 -0.9604 -0.2573
vn 0.3715 -0.2403 -0.8968
vn 0.2811 0.6786 -0.6786
vn 0.6786 -0.6786 -0.2811
vn 0.8968 0.2403 -0.3715
vn 0.2573 0.9604 -0.1066
vn 0.2573 -0.9604 -0.1066
vn 0.8968 -0.2403 -0.3715
vn 0.6786 0.6786 -0.2811
vn 0.8526 -0.2264 0.4709
vn 0.8506 0.2363 0.4698
vn 0.3265 0.9355 0.1352
vn 0.6527 -0.6663 0.3605
vn 0.8753 -0.0097 0.4834
vn 0.7409 0.5570 0.3753
vn 0.2910 0.1952 0.9366
vn 0.1352 0.9355 0.3265
vn 0.2395 -0.5902 0.7709
vn 0.2967 -0.0079 0.9549
vn 0.2905 0.4247 0.8575
vn 0.2914 -0.1869 0.9382
vn -0.1352 0.9355 0.3265
vn -0.2395 -0.5902 0.7709
vn -0.2967 -0.0079 0.9549
vn -0.2905 0.4247 0.8575
vn -0.2914 -0.1869 0.9382
vn -0.2910 0.1952 0.9366
vn -0.6527 -0.6663 0.3605
vn -0.8753 -0.0097 0.4834
vn -0.7409 0.5570 0.3753
vn -0.8526 -0.2264 0.4709
vn -0.8506 0.2363 0.4698
vn -0.3265 0.9355 0.1352
vn -0.6527 -0.6663 -0.3605
vn -0.8753 -0.0097 -0.4834
vn -0.7409 0.5570 -0.3753
vn -0.8526 -0.2264 -0.4709
vn -0.8506 0.2363 -0.4698
vn -0.3265 0.9355 -0.1352
vn -0.2395 -0.5902 -0.7709
vn -0.2967 -0.0079 -0.9549
vn -0.2905 0.4247 -0.8575
vn -0.2914 -0.1869 -0.9382
vn -0.2910 0.1952 -0.9366
vn -0.1352 0.9355 -0.3265
vn 0.2967 -0.0079 -0.9549
vn 0.2905 0.4247 -0.8575
vn 0.2914 -0.1869 -0.9382
vn 0.2910 0.1952 -0.9366
vn 0.1352 0.9355 -0.3265
vn 0.2395 -0.5902 -0.7709
vn 0.7409 0.5570 -0.3753
vn 0.8526 -0.2264 -0.4709
vn 0.8506 0.2363 -0.4698
vn 0.3265 0.9355 -0.1352
vn 0.6527 -0.6663 -0.3605
vn 0.8753 -0.0097 -0.4834
usemtl none
f 1/1/1 2/2/1 3/3/1 4/4/1
f 5/5/2 6/6/2 7/7/2
f 8/8/3 9/9/3 10/10/3
f 11/11/4 1/1/4 4/4/4 12/12/4
f 2/2/5 5/5/5 7/7/5 3/3/5
f 9/13/6 11/11/6 12/12/6 10/14/6
f 8/15/7 10/16/7 13/17/7
f 12/12/8 4/4/8 14/18/8 15/19/8
f 3/3/9 7/7/9 16/20/9 17/21/9
f 10/14/10 12/12/10 15/19/10 13/22/10
f 4/4/11 3/3/11 17/21/11 14/18/11
f 7/7/12 6/6/12 16/20/12
f 8/23/13 13/22/13 18/24/13
f 15/19/14 14/18/14 19/25/14 20/26/14
f 17/21/15 16/20/15 21/27/15 22/28/15
f 13/22/16 15/19/16 20/26/16 18/24/16
f 14/18/17 17/21/17 22/28/17 19/25/17
f 16/20/18 6/6/18 21/27/18
f 20/26/19 19/25/19 23/29/19 24/30/19
f 22/28/20 21/27/20 25/31/20 26/32/20
f 18/24/21 20/26/21 24/30/21 27/33/21
f 19/25/22 22/28/22 26/32/22 23/29/22
f 21/27/23 6/6/23 25/31/23
f 8/23/24 18/24/24 27/33/24
f 26/32/25 25/31/25 28/34/25 29/35/25
f 27/33/26 24/30/26 30/36/26 31/37/26
f 23/29/27 26/32/27 29/35/27 32/38/27
f 25/31/28 6/6/28 28/34/28
f 8/23/29 27/33/29 31/37/29
f 24/30/30 23/29/30 32/38/30 30/36/30
f 31/37/31 30/36/31 33/39/31 34/40/31
f 32/38/32 29/35/32 35/41/32 36/42/32
f 28/34/33 6/6/33 37/43/33
f 8/44/34 31/45/34 34/46/34
f 30/36/35 32/38/35 36/42/35 33/39/35
f 29/35/36 28/34/36 37/43/36 35/41/36
f 34/40/37 33/39/37 38/47/37 39/48/37
f 36/42/38 35/41/38 40/49/38 41/50/38
f 37/43/39 6/6/39 42/51/39
f 8/52/40 34/53/40 39/54/40
f 33/39/41 36/42/41 41/50/41 38/47/41
f 35/41/42 37/43/42 42/51/42 40/49/42
f 39/48/43 38/47/43 11/11/43 9/13/43
f 41/50/44 40/49/44 2/2/44 1/1/44
f 42/51/45 6/6/45 5/5/45
f 8/55/46 39/56/46 9/57/46
f 38/47/47 41/50/47 1/1/47 11/11/47
f 40/49/48 42/51/48 5/5/48 2/2/48
f 43/58/49 44/59/49 45/60/49 46/61/49
f 47/62/50 48/63/50 49/64/50 50/65/50
f 51/66/51 52/67/51 53/68/51
f 54/69/52 43/58/52 46/61/52
f 44/70/53 47/71/53 50/72/53 45/73/53
f 48/63/54 51/74/54 53/75/54 49/64/54
f 50/65/55 49/64/55 55/76/55 56/77/55
f 53/75/56 52/78/56 57/79/56
f 54/69/57 46/61/57 58/80/57
f 45/60/58 50/65/58 56/77/58 59/81/58
f 49/64/59 53/75/59 57/79/59 55/76/59
f 46/61/60 45/60/60 59/81/60 58/80/60
f 57/79/61 52/78/61 60/82/61
f 54/69/62 58/80/62 61/83/62
f 59/81/63 56/77/63 62/84/63 63/85/63
f 55/76/64 57/79/64 60/82/64 64/86/64
f 58/80/65 59/81/65 63/85/65 61/83/65
f 56/77/66 55/76/66 64/86/66 62/84/66
f 54/69/67 61/83/67 65/87/67
f 63/85/68 62/84/68 66/88/68 67/89/68
f 64/86/69 60/82/69 68/90/69 69/91/69
f 61/83/70 63/85/70 67/89/70 65/87/70
f 62/84/71 64/86/71 69/91/71 66/88/71
f 60/92/72 52/67/72 68/93/72
f 54/94/73 65/95/73 70/96/73
f 67/89/74 66/88/74 71/97/74 72/98/74
f 69/99/75 68/93/75 73/100/75 74/101/75
f 65/95/76 67/102/76 72/103/76 70/96/76
f 66/104/77 69/99/77 74/101/77 71/105/77
f 68/93/78 52/67/78 73/100/78
f 54/94/79 70/96/79 75/106/79
f 72/103/80 71/105/80 76/107/80 77/108/80
f 74/101/81 73/100/81 78/109/81 79/110/81
f 70/96/82 72/103/82 77/108/82 75/106/82
f 71/105/83 74/101/83 79/110/83 76/107/83
f 73/100/84 52/67/84 78/109/84
f 77/108/85 76/107/85 80/111/85 81/112/85
f 79/110/86 78/109/86 82/113/86 83/114/86
f 75/106/87 77/108/87 81/112/87 84/115/87
f 76/107/88 79/110/88 83/114/88 80/111/88
f 78/109/89 52/67/89 82/113/89
f 54/94/90 75/106/90 84/115/90
f 83/114/91 82/113/91 51/66/91 48/116/91
f 84/115/92 81/112/92 44/117/92 43/118/92
f 80/111/93 83/114/93 48/116/93 47/119/93
f 82/113/94 52/67/94 51/66/94
f 54/94/95 84/115/95 43/118/95
f 81/112/96 80/111/96 47/119/96 44/117/96
