mtllib marks.mtl
o body
v 0.000000 0.850000 0.000000
v 0.082290 0.613262 0.055000
v 0.082290 0.613262 -0.055000
v 0.332870 0.608156 0.000000
v 0.133148 0.456738 0.055000
v 0.133148 0.456738 -0.055000
v 0.205725 0.216844 0.000000
v 0.000000 0.360000 0.055000
v 0.000000 0.360000 -0.055000
v -0.205725 0.216844 -0.000000
v -0.133148 0.456738 0.055000
v -0.133148 0.456738 -0.055000
v -0.332870 0.608156 -0.000000
v -0.082290 0.613262 0.055000
v -0.082290 0.613262 -0.055000
v 0.045963 0.563262 0.036250
v 0.074369 0.475836 0.036250
v -0.045963 0.563262 0.036250
v -0.074369 0.475836 0.036250
v 0.000000 0.421803 0.036250
v -0.045963 0.563262 -0.036250
v -0.074369 0.475836 -0.036250
v 0.045963 0.563262 -0.036250
v 0.074369 0.475836 -0.036250
v 0.000000 0.421803 -0.036250
vt 1.000000 1.000000
vt 0.900000 1.000000
vt 0.900000 0.500000
vt 0.800000 0.500000
vt 0.800000 1.000000
vt 0.700000 1.000000
vt 0.700000 0.500000
vt 0.600000 0.500000
vt 0.600000 1.000000
vt 0.500000 1.000000
vt 0.500000 0.500000
vt 0.400000 0.500000
vt 0.400000 1.000000
vt 0.300000 1.000000
vt 0.300000 0.500000
vt 0.200000 0.500000
vt 0.391068 0.444164
vt 0.478254 0.175836
vt 0.478254 0.324164
vt 0.200000 1.000000
vt 0.100000 1.000000
vt 0.100000 0.500000
vt -0.000000 0.500000
vt 0.750000 0.490000
vt 0.891068 0.444164
vt 0.608932 0.444164
vt 0.250000 0.010000
vt 0.021746 0.175836
vt 0.108932 0.055836
vt 0.391068 0.055836
vt 0.108932 0.444164
vt 0.021746 0.324164
vt 0.250000 0.490000
vt 0.521746 0.175836
vt 0.521746 0.324164
vt 0.750000 0.010000
vt 0.608932 0.055836
vt 0.978254 0.175836
vt 0.891068 0.055836
vt 0.978254 0.324164
vt 0.328793 0.358450
vt 0.377490 0.208576
vt 0.171207 0.358450
vt 0.122510 0.208576
vt 0.250000 0.115949
vt 0.671207 0.358450
vt 0.622510 0.208576
vt 0.828793 0.358450
vt 0.877490 0.208576
vt 0.750000 0.115949
vn 0.9446 0.3283 -0.0000
vn 0.0204 0.9998 0.0000
vn 0.6041 -0.7969 0.0000
vn 0.9572 0.2896 0.0000
vn -0.5712 -0.8208 -0.0000
vn 0.5712 -0.8208 0.0000
vn -0.9572 0.2896 0.0000
vn -0.6041 -0.7969 0.0000
vn 0.2152 0.0699 0.9741
vn -0.0204 0.9998 0.0000
vn -0.9446 0.3283 -0.0000
vn 0.0000 0.2263 -0.9741
vn -0.1330 -0.1831 0.9741
vn 0.1330 -0.1831 0.9741
vn -0.2152 0.0699 0.9741
vn -0.0000 0.2263 0.9741
vn -0.2152 0.0699 -0.9741
vn -0.1330 -0.1831 -0.9741
vn 0.1330 -0.1831 -0.9741
vn 0.2152 0.0699 -0.9741
vn -0.3339 -0.1085 0.9363
vn -0.0000 -0.3511 0.9363
vn 0.3339 -0.1085 0.9363
vn 0.2064 0.2841 0.9363
vn -0.2064 0.2841 0.9363
vn 0.3339 -0.1085 -0.9363
vn 0.0000 -0.3511 -0.9363
vn -0.3339 -0.1085 -0.9363
vn -0.2064 0.2841 -0.9363
vn 0.2064 0.2841 -0.9363
vn 0.5878 0.8090 0.0000
vn -0.5878 0.8090 0.0000
vn -0.9511 -0.3090 0.0000
vn 0.0000 -1.0000 0.0000
vn 0.9511 -0.3090 0.0000
usemtl none
f 1/1/1 2/2/1 3/3/1
f 3/3/2 2/2/2 4/4/2
f 4/5/3 5/6/3 6/7/3
f 6/7/4 5/6/4 7/8/4
f 7/9/5 8/10/5 9/11/5
f 9/11/6 8/10/6 10/12/6
f 10/13/7 11/14/7 12/15/7
f 12/15/8 11/14/8 13/16/8
f 2/17/9 5/18/9 4/19/9
f 13/20/10 14/21/10 15/22/10
f 15/22/11 14/21/11 1/23/11
f 1/24/12 3/25/12 15/26/12
f 8/27/13 11/28/13 10/29/13
f 8/27/14 7/30/14 5/18/14
f 11/28/15 14/31/15 13/32/15
f 14/31/16 2/17/16 1/33/16
f 15/26/17 12/34/17 13/35/17
f 12/34/18 9/36/18 10/37/18
f 9/36/19 6/38/19 7/39/19
f 6/38/20 3/25/20 4/40/20
f 16/41/21 17/42/21 5/18/21 2/17/21
f 18/43/22 16/41/22 2/17/22 14/31/22
f 19/44/23 18/43/23 14/31/23 11/28/23
f 20/45/24 19/44/24 11/28/24 8/27/24
f 17/42/25 20/45/25 8/27/25 5/18/25
f 21/46/26 22/47/26 12/34/26 15/26/26
f 23/48/27 21/46/27 15/26/27 3/25/27
f 24/49/28 23/48/28 3/25/28 6/38/28
f 25/50/29 24/49/29 6/38/29 9/36/29
f 22/47/30 25/50/30 9/36/30 12/34/30
f 19/44/31 20/45/31 25/50/31 22/47/31
f 20/45/32 17/42/32 24/49/32 25/50/32
f 17/42/33 16/41/33 23/48/33 24/49/33
f 16/41/34 18/43/34 21/46/34 23/48/34
f 18/43/35 19/44/35 22/47/35 21/46/35
